M48
; DRILL file {KiCad 9.0.0} date 2025-06-15T12:13:05-0400
; FORMAT={-:-/ absolute / inch / decimal}
; #@! TF.CreationDate,2025-06-15T12:13:05-04:00
; #@! TF.GenerationSoftware,Kicad,Pcbnew,9.0.0
; #@! TF.FileFunction,Plated,1,2,PTH
FMAT,2
INCH
; #@! TA.AperFunction,Plated,PTH,ComponentDrill
T1C0.0236
; #@! TA.AperFunction,Plated,PTH,ComponentDrill
T2C0.0276
; #@! TA.AperFunction,Plated,PTH,ComponentDrill
T3C0.0315
; #@! TA.AperFunction,Plated,PTH,ComponentDrill
T4C0.0394
; #@! TA.AperFunction,Plated,PTH,ComponentDrill
T5C0.0433
; #@! TA.AperFunction,Plated,PTH,ComponentDrill
T6C0.0472
; #@! TA.AperFunction,Plated,PTH,ComponentDrill
T7C0.0551
; #@! TA.AperFunction,Plated,PTH,ComponentDrill
T8C0.0591
%
G90
G05
T1
X4.2917Y-3.76
X4.3704Y-3.76
X4.9213Y-1.01
X5.0Y-1.01
X5.2613Y-1.5303
X5.34Y-1.5303
X5.7113Y-0.47
X5.7317Y-5.09
X5.79Y-0.47
X5.8104Y-5.09
X7.0013Y-2.58
X7.08Y-2.58
T2
X4.18Y-3.54
X4.18Y-4.0
X4.18Y-4.58
X4.48Y-3.54
X4.48Y-4.0
X4.48Y-4.58
X4.77Y-3.56
X4.7728Y-4.85
X4.7728Y-5.02
X4.78Y-3.085
X4.78Y-3.335
X4.81Y-1.3003
X4.81Y-1.5203
X4.81Y-1.7703
X4.82Y-0.73
X5.07Y-3.56
X5.0728Y-4.85
X5.0728Y-5.02
X5.08Y-3.085
X5.08Y-3.335
X5.11Y-1.3003
X5.11Y-1.5203
X5.11Y-1.7703
X5.12Y-0.73
X5.28Y-0.73
X5.35Y-3.24
X5.58Y-0.73
X5.65Y-3.24
X5.725Y-4.075
X5.77Y-0.73
X5.84Y-3.24
X5.975Y-4.525
X5.98Y-3.56
X5.98Y-3.75
X6.025Y-2.675
X6.025Y-2.975
X6.025Y-4.075
X6.07Y-0.73
X6.14Y-3.24
X6.275Y-1.54
X6.275Y-4.525
X6.28Y-3.56
X6.28Y-3.75
X6.425Y-4.55
X6.575Y-1.54
X6.725Y-4.55
X7.25Y-1.175
X7.25Y-1.85
X7.25Y-2.925
X7.25Y-3.625
X7.55Y-1.175
X7.55Y-1.85
X7.55Y-2.925
X7.55Y-3.625
T3
X4.2316Y-4.27
X4.4284Y-4.27
X4.7231Y-4.54
X4.73Y-3.83
X4.78Y-4.1
X4.7828Y-4.28
X4.8231Y-4.44
X4.8231Y-4.64
X4.83Y-3.73
X4.83Y-3.93
X4.85Y-2.1203
X4.85Y-2.4703
X4.95Y-2.0203
X4.95Y-2.3703
X4.9925Y-4.44
X4.9925Y-4.64
X4.9997Y-3.73
X4.9997Y-3.93
X5.05Y-2.1203
X5.05Y-2.4703
X5.08Y-4.1
X5.0828Y-4.28
X5.0925Y-4.54
X5.0997Y-3.83
X5.3416Y-3.94
X5.3416Y-4.15
X5.3677Y-3.55
X5.39Y-1.0703
X5.49Y-0.9703
X5.5384Y-3.94
X5.5384Y-4.15
X5.5646Y-3.55
X5.59Y-1.0703
X5.7Y-4.3553
X5.75Y-3.4
X5.75Y-3.7
X5.8Y-2.7266
X5.8Y-2.9234
X5.8Y-4.2553
X5.85Y-4.8603
X5.9Y-4.3553
X5.95Y-4.7603
X6.02Y-5.11
X6.05Y-4.8603
X6.21Y-0.47
X6.2766Y-3.99
X6.2916Y-2.1
X6.3316Y-0.87
X6.42Y-5.11
X6.4734Y-3.99
X6.4884Y-2.1
X6.5284Y-0.87
X6.61Y-0.47
X6.825Y-2.85
X6.84Y-1.025
X6.84Y-1.325
X6.9Y-4.275
X6.9Y-4.575
X6.925Y-2.85
X7.025Y-2.85
X7.2531Y-4.3
X7.3Y-0.86
X7.3Y-2.5339
X7.3Y-2.6339
X7.45Y-4.3
X7.4969Y-0.86
X7.5477Y-0.625
X7.5554Y-4.625
X7.575Y-2.5161
X7.575Y-2.6161
X7.7446Y-0.625
X7.7523Y-4.625
T4
X5.63Y-4.55
X5.7198Y-4.55
X5.8096Y-4.55
X5.8252Y-1.0502
X5.915Y-1.0502
X6.0047Y-1.0502
X6.2955Y-4.275
X6.3404Y-1.3048
X6.3852Y-4.275
X6.4302Y-1.3048
X6.475Y-4.275
X6.52Y-1.3048
X7.7752Y-2.5104
X7.7752Y-2.6002
X7.7752Y-2.69
T5
X6.84Y-0.41
X6.84Y-0.81
X6.9Y-4.725
X6.9Y-5.125
X7.3Y-0.275
X7.3Y-0.675
X7.3Y-4.65
X7.3Y-5.05
T6
X4.3208Y-4.8411
X4.3208Y-4.9789
X5.6Y-2.375
X6.2Y-2.375
X6.9Y-1.6
X6.9Y-2.275
X6.9Y-3.35
X6.9Y-4.05
X7.5Y-1.6
X7.5Y-2.275
X7.5Y-3.35
X7.5Y-4.05
T7
X4.1539Y-2.7
X4.1539Y-2.9
X4.4Y-2.7
X4.4Y-2.9
X6.2789Y-2.675
X6.2789Y-2.875
X7.53Y-5.17
X7.55Y-0.15
X7.73Y-5.17
X7.75Y-0.15
T8
X7.76Y-1.1654
X7.76Y-1.38
X7.76Y-1.5946
X7.76Y-1.8554
X7.76Y-2.07
X7.76Y-2.2846
X7.76Y-2.92
X7.76Y-3.1346
X7.76Y-3.3491
X7.76Y-3.6309
X7.76Y-3.8454
X7.76Y-4.06
M30
