%TF.GenerationSoftware,KiCad,Pcbnew,9.0.0*%
%TF.CreationDate,2025-06-15T12:12:57-04:00*%
%TF.ProjectId,classab-amp,636c6173-7361-4622-9d61-6d702e6b6963,rev?*%
%TF.SameCoordinates,Original*%
%TF.FileFunction,Soldermask,Top*%
%TF.FilePolarity,Negative*%
%FSLAX46Y46*%
G04 Gerber Fmt 4.6, Leading zero omitted, Abs format (unit mm)*
G04 Created by KiCad (PCBNEW 9.0.0) date 2025-06-15 12:12:57*
%MOMM*%
%LPD*%
G01*
G04 APERTURE LIST*
G04 Aperture macros list*
%AMRoundRect*
0 Rectangle with rounded corners*
0 $1 Rounding radius*
0 $2 $3 $4 $5 $6 $7 $8 $9 X,Y pos of 4 corners*
0 Add a 4 corners polygon primitive as box body*
4,1,4,$2,$3,$4,$5,$6,$7,$8,$9,$2,$3,0*
0 Add four circle primitives for the rounded corners*
1,1,$1+$1,$2,$3*
1,1,$1+$1,$4,$5*
1,1,$1+$1,$6,$7*
1,1,$1+$1,$8,$9*
0 Add four rect primitives between the rounded corners*
20,1,$1+$1,$2,$3,$4,$5,0*
20,1,$1+$1,$4,$5,$6,$7,0*
20,1,$1+$1,$6,$7,$8,$9,0*
20,1,$1+$1,$8,$9,$2,$3,0*%
G04 Aperture macros list end*
%ADD10C,3.200000*%
%ADD11C,2.400000*%
%ADD12O,2.400000X2.400000*%
%ADD13C,1.400000*%
%ADD14O,1.400000X1.400000*%
%ADD15R,1.710000X1.800000*%
%ADD16O,1.710000X1.800000*%
%ADD17R,1.200000X1.200000*%
%ADD18C,1.200000*%
%ADD19R,1.600000X1.600000*%
%ADD20O,1.600000X1.600000*%
%ADD21R,4.500000X2.500000*%
%ADD22O,4.500000X2.500000*%
%ADD23C,1.600000*%
%ADD24R,1.500000X1.500000*%
%ADD25C,1.500000*%
%ADD26R,1.800000X1.710000*%
%ADD27O,1.800000X1.710000*%
%ADD28C,1.512000*%
%ADD29C,3.000000*%
%ADD30RoundRect,0.250001X0.949999X-0.949999X0.949999X0.949999X-0.949999X0.949999X-0.949999X-0.949999X0*%
%ADD31R,2.200000X2.200000*%
%ADD32O,2.200000X2.200000*%
G04 APERTURE END LIST*
D10*
%TO.C,H3*%
X202184000Y-141986000D03*
%TD*%
D11*
%TO.C,R24*%
X142240000Y-60325000D03*
D12*
X157480000Y-60325000D03*
%TD*%
D13*
%TO.C,R19*%
X154178000Y-18542000D03*
D14*
X146558000Y-18542000D03*
%TD*%
D15*
%TO.C,Q13*%
X161047000Y-33141000D03*
D16*
X163327000Y-33141000D03*
X165607000Y-33141000D03*
%TD*%
D13*
%TO.C,R20*%
X151765000Y-114935000D03*
D14*
X159385000Y-114935000D03*
%TD*%
D17*
%TO.C,C7*%
X177832000Y-65532000D03*
D18*
X179832000Y-65532000D03*
%TD*%
D19*
%TO.C,D1*%
X129032000Y-104140000D03*
D20*
X121412000Y-104140000D03*
%TD*%
D21*
%TO.C,Q17*%
X197104000Y-74168000D03*
D22*
X197104000Y-79618000D03*
X197104000Y-85068000D03*
%TD*%
D23*
%TO.C,C26*%
X135676000Y-100076000D03*
X140676000Y-100076000D03*
%TD*%
D19*
%TO.C,D2*%
X121483712Y-108712000D03*
D20*
X129103712Y-108712000D03*
%TD*%
D10*
%TO.C,H2*%
X202184000Y2540000D03*
%TD*%
D13*
%TO.C,R14*%
X148336000Y-82296000D03*
D14*
X155956000Y-82296000D03*
%TD*%
D24*
%TO.C,Q5*%
X126809712Y-112776000D03*
D25*
X129349712Y-115316000D03*
X126809712Y-117856000D03*
%TD*%
D23*
%TO.C,R43*%
X157734000Y-11938000D03*
D20*
X167894000Y-11938000D03*
%TD*%
D24*
%TO.C,Q7*%
X148590000Y-123452000D03*
D25*
X151130000Y-120912000D03*
X153670000Y-123452000D03*
%TD*%
D23*
%TO.C,C9*%
X164425000Y-101346000D03*
X159425000Y-101346000D03*
%TD*%
%TO.C,R17*%
X185420000Y-64360000D03*
D20*
X185420000Y-66900000D03*
%TD*%
D10*
%TO.C,H1*%
X96012000Y2540000D03*
%TD*%
D26*
%TO.C,Q11*%
X197491000Y-63765000D03*
D27*
X197491000Y-66045000D03*
X197491000Y-68325000D03*
%TD*%
D24*
%TO.C,Q1*%
X123190000Y-53856000D03*
D25*
X125730000Y-51316000D03*
X128270000Y-53856000D03*
%TD*%
D13*
%TO.C,R32*%
X184150000Y-74295000D03*
D14*
X191770000Y-74295000D03*
%TD*%
D13*
%TO.C,R3*%
X106172000Y-89916000D03*
D14*
X113792000Y-89916000D03*
%TD*%
D13*
%TO.C,R1*%
X106172000Y-116332000D03*
D14*
X113792000Y-116332000D03*
%TD*%
D11*
%TO.C,R30*%
X175260000Y-85090000D03*
D12*
X190500000Y-85090000D03*
%TD*%
D11*
%TO.C,R28*%
X190500000Y-40640000D03*
D12*
X175260000Y-40640000D03*
%TD*%
D11*
%TO.C,R31*%
X175260000Y-102870000D03*
D12*
X190500000Y-102870000D03*
%TD*%
D24*
%TO.C,Q8*%
X144780000Y-110625000D03*
D25*
X147320000Y-108085000D03*
X149860000Y-110625000D03*
%TD*%
D19*
%TO.C,C4*%
X141340651Y-90170000D03*
D23*
X136340651Y-90170000D03*
%TD*%
D13*
%TO.C,R27*%
X184150000Y-46990000D03*
D14*
X191770000Y-46990000D03*
%TD*%
D13*
%TO.C,R8*%
X121412000Y-84709000D03*
D14*
X129032000Y-84709000D03*
%TD*%
D24*
%TO.C,Q3*%
X122507712Y-117856000D03*
D25*
X119967712Y-115316000D03*
X122507712Y-112776000D03*
%TD*%
D23*
%TO.C,R18*%
X192405000Y-66450000D03*
D20*
X192405000Y-63910000D03*
%TD*%
D23*
%TO.C,R44*%
X152908000Y-129794000D03*
D20*
X163068000Y-129794000D03*
%TD*%
D17*
%TO.C,C2*%
X135636000Y-38870000D03*
D18*
X133636000Y-38870000D03*
%TD*%
D17*
%TO.C,C5*%
X125000000Y-25654000D03*
D18*
X127000000Y-25654000D03*
%TD*%
D24*
%TO.C,Q6*%
X126992000Y-94742000D03*
D25*
X129532000Y-97282000D03*
X126992000Y-99822000D03*
%TD*%
D21*
%TO.C,Q16*%
X197104000Y-92224000D03*
D22*
X197104000Y-97674000D03*
X197104000Y-103124000D03*
%TD*%
D28*
%TO.C,RV1*%
X173355000Y-72390000D03*
X175895000Y-72390000D03*
X178435000Y-72390000D03*
%TD*%
D13*
%TO.C,R6*%
X122174000Y-33028000D03*
D14*
X129794000Y-33028000D03*
%TD*%
D11*
%TO.C,R29*%
X190500000Y-57785000D03*
D12*
X175260000Y-57785000D03*
%TD*%
D23*
%TO.C,C6*%
X135676000Y-105410000D03*
X140676000Y-105410000D03*
%TD*%
D29*
%TO.C,J7*%
X111760000Y-73660000D03*
X111760000Y-68580000D03*
%TD*%
D15*
%TO.C,Q10*%
X147960110Y-26675000D03*
D16*
X150240110Y-26675000D03*
X152520110Y-26675000D03*
%TD*%
D19*
%TO.C,D7*%
X175260000Y-116205000D03*
D20*
X175260000Y-108585000D03*
%TD*%
D13*
%TO.C,R4*%
X106172000Y-101600000D03*
D14*
X113792000Y-101600000D03*
%TD*%
D17*
%TO.C,C3*%
X109009401Y-95504000D03*
D18*
X111009401Y-95504000D03*
%TD*%
D23*
%TO.C,C11*%
X185420000Y-21844000D03*
X190420000Y-21844000D03*
%TD*%
%TO.C,C10*%
X147320000Y-69255000D03*
X147320000Y-74255000D03*
%TD*%
D13*
%TO.C,R13*%
X145415000Y-103505000D03*
D14*
X153035000Y-103505000D03*
%TD*%
D29*
%TO.C,J5*%
X159485000Y-73025000D03*
X159485000Y-67945000D03*
%TD*%
D13*
%TO.C,R10*%
X129032000Y-78359000D03*
D14*
X121412000Y-78359000D03*
%TD*%
D13*
%TO.C,R26*%
X184150000Y-92075000D03*
D14*
X191770000Y-92075000D03*
%TD*%
D13*
%TO.C,R22*%
X159385000Y-39116000D03*
D14*
X167005000Y-39116000D03*
%TD*%
D13*
%TO.C,R25*%
X184150000Y-29845000D03*
D14*
X191770000Y-29845000D03*
%TD*%
D13*
%TO.C,R16*%
X134112000Y-18542000D03*
D14*
X141732000Y-18542000D03*
%TD*%
D13*
%TO.C,R21*%
X153035000Y-67945000D03*
D14*
X153035000Y-75565000D03*
%TD*%
D29*
%TO.C,J6*%
X105510000Y-73660000D03*
X105510000Y-68580000D03*
%TD*%
D13*
%TO.C,R46*%
X151892000Y-95250000D03*
D14*
X159512000Y-95250000D03*
%TD*%
D19*
%TO.C,C14*%
X191907349Y-117475000D03*
D23*
X196907349Y-117475000D03*
%TD*%
D24*
%TO.C,Q9*%
X136906000Y-27186000D03*
D25*
X139446000Y-24646000D03*
X141986000Y-27186000D03*
%TD*%
D17*
%TO.C,C25*%
X145585401Y-129286000D03*
D18*
X147585401Y-129286000D03*
%TD*%
D13*
%TO.C,R11*%
X121229712Y-123190000D03*
D14*
X128849712Y-123190000D03*
%TD*%
D17*
%TO.C,C24*%
X145066000Y-11938000D03*
D18*
X147066000Y-11938000D03*
%TD*%
D30*
%TO.C,J1*%
X109749500Y-126464000D03*
D11*
X109749500Y-122964000D03*
%TD*%
D24*
%TO.C,Q4*%
X123190000Y-62746000D03*
D25*
X125730000Y-60206000D03*
X128270000Y-62746000D03*
%TD*%
D21*
%TO.C,Q15*%
X197104000Y-29602000D03*
D22*
X197104000Y-35052000D03*
X197104000Y-40502000D03*
%TD*%
D13*
%TO.C,R12*%
X135890000Y-82296000D03*
D14*
X143510000Y-82296000D03*
%TD*%
D13*
%TO.C,R45*%
X159512000Y-90424000D03*
D14*
X151892000Y-90424000D03*
%TD*%
D23*
%TO.C,C15*%
X164806000Y-53340000D03*
X159806000Y-53340000D03*
%TD*%
D13*
%TO.C,R9*%
X122174000Y-44966000D03*
D14*
X129794000Y-44966000D03*
%TD*%
D31*
%TO.C,D4*%
X173736000Y-10414000D03*
D32*
X173736000Y-20574000D03*
%TD*%
D19*
%TO.C,C13*%
X196712651Y-15875000D03*
D23*
X191712651Y-15875000D03*
%TD*%
D29*
%TO.C,J4*%
X191770000Y-3810000D03*
X196850000Y-3810000D03*
%TD*%
D15*
%TO.C,Q12*%
X147563000Y-115570000D03*
D16*
X145283000Y-115570000D03*
X143003000Y-115570000D03*
%TD*%
D31*
%TO.C,D6*%
X175260000Y-120015000D03*
D32*
X175260000Y-130175000D03*
%TD*%
D13*
%TO.C,R5*%
X129794000Y-38616000D03*
D14*
X122174000Y-38616000D03*
%TD*%
D31*
%TO.C,D8*%
X185420000Y-6985000D03*
D32*
X185420000Y-17145000D03*
%TD*%
D13*
%TO.C,R23*%
X163195000Y-115570000D03*
D14*
X170815000Y-115570000D03*
%TD*%
D23*
%TO.C,C8*%
X165822000Y-22098000D03*
X160822000Y-22098000D03*
%TD*%
D10*
%TO.C,H4*%
X96012000Y-142240000D03*
%TD*%
D19*
%TO.C,D3*%
X146050000Y-86360000D03*
D20*
X146050000Y-93980000D03*
%TD*%
D21*
%TO.C,Q18*%
X197104000Y-47128000D03*
D22*
X197104000Y-52578000D03*
X197104000Y-58028000D03*
%TD*%
D13*
%TO.C,R7*%
X121229712Y-127508000D03*
D14*
X128849712Y-127508000D03*
%TD*%
D13*
%TO.C,R2*%
X128778000Y-90424000D03*
D14*
X121158000Y-90424000D03*
%TD*%
D15*
%TO.C,Q14*%
X164465000Y-108585000D03*
D16*
X162185000Y-108585000D03*
X159905000Y-108585000D03*
%TD*%
D19*
%TO.C,D5*%
X173736000Y-33655000D03*
D20*
X173736000Y-26035000D03*
%TD*%
D13*
%TO.C,R15*%
X122428000Y-18542000D03*
D14*
X130048000Y-18542000D03*
%TD*%
D24*
%TO.C,Q2*%
X122682000Y-99822000D03*
D25*
X120142000Y-97282000D03*
X122682000Y-94742000D03*
%TD*%
D29*
%TO.C,J3*%
X191262000Y-131318000D03*
X196342000Y-131318000D03*
%TD*%
D23*
%TO.C,C12*%
X189230000Y-109220000D03*
X184230000Y-109220000D03*
%TD*%
%TO.C,C1*%
X107482000Y-108458000D03*
X112482000Y-108458000D03*
%TD*%
D31*
%TO.C,D9*%
X185420000Y-118110000D03*
D32*
X185420000Y-128270000D03*
%TD*%
M02*
