%TF.GenerationSoftware,KiCad,Pcbnew,9.0.0*%
%TF.CreationDate,2025-06-15T12:12:57-04:00*%
%TF.ProjectId,classab-amp,636c6173-7361-4622-9d61-6d702e6b6963,rev?*%
%TF.SameCoordinates,Original*%
%TF.FileFunction,Copper,L1,Top*%
%TF.FilePolarity,Positive*%
%FSLAX46Y46*%
G04 Gerber Fmt 4.6, Leading zero omitted, Abs format (unit mm)*
G04 Created by KiCad (PCBNEW 9.0.0) date 2025-06-15 12:12:57*
%MOMM*%
%LPD*%
G01*
G04 APERTURE LIST*
G04 Aperture macros list*
%AMRoundRect*
0 Rectangle with rounded corners*
0 $1 Rounding radius*
0 $2 $3 $4 $5 $6 $7 $8 $9 X,Y pos of 4 corners*
0 Add a 4 corners polygon primitive as box body*
4,1,4,$2,$3,$4,$5,$6,$7,$8,$9,$2,$3,0*
0 Add four circle primitives for the rounded corners*
1,1,$1+$1,$2,$3*
1,1,$1+$1,$4,$5*
1,1,$1+$1,$6,$7*
1,1,$1+$1,$8,$9*
0 Add four rect primitives between the rounded corners*
20,1,$1+$1,$2,$3,$4,$5,0*
20,1,$1+$1,$4,$5,$6,$7,0*
20,1,$1+$1,$6,$7,$8,$9,0*
20,1,$1+$1,$8,$9,$2,$3,0*%
G04 Aperture macros list end*
%TA.AperFunction,ComponentPad*%
%ADD10C,2.400000*%
%TD*%
%TA.AperFunction,ComponentPad*%
%ADD11O,2.400000X2.400000*%
%TD*%
%TA.AperFunction,ComponentPad*%
%ADD12C,1.400000*%
%TD*%
%TA.AperFunction,ComponentPad*%
%ADD13O,1.400000X1.400000*%
%TD*%
%TA.AperFunction,ComponentPad*%
%ADD14R,1.710000X1.800000*%
%TD*%
%TA.AperFunction,ComponentPad*%
%ADD15O,1.710000X1.800000*%
%TD*%
%TA.AperFunction,ComponentPad*%
%ADD16R,1.200000X1.200000*%
%TD*%
%TA.AperFunction,ComponentPad*%
%ADD17C,1.200000*%
%TD*%
%TA.AperFunction,ComponentPad*%
%ADD18R,1.600000X1.600000*%
%TD*%
%TA.AperFunction,ComponentPad*%
%ADD19O,1.600000X1.600000*%
%TD*%
%TA.AperFunction,ComponentPad*%
%ADD20R,4.500000X2.500000*%
%TD*%
%TA.AperFunction,ComponentPad*%
%ADD21O,4.500000X2.500000*%
%TD*%
%TA.AperFunction,ComponentPad*%
%ADD22C,1.600000*%
%TD*%
%TA.AperFunction,ComponentPad*%
%ADD23R,1.500000X1.500000*%
%TD*%
%TA.AperFunction,ComponentPad*%
%ADD24C,1.500000*%
%TD*%
%TA.AperFunction,ComponentPad*%
%ADD25R,1.800000X1.710000*%
%TD*%
%TA.AperFunction,ComponentPad*%
%ADD26O,1.800000X1.710000*%
%TD*%
%TA.AperFunction,ComponentPad*%
%ADD27C,1.308000*%
%TD*%
%TA.AperFunction,ComponentPad*%
%ADD28C,3.000000*%
%TD*%
%TA.AperFunction,ComponentPad*%
%ADD29RoundRect,0.250001X0.949999X-0.949999X0.949999X0.949999X-0.949999X0.949999X-0.949999X-0.949999X0*%
%TD*%
%TA.AperFunction,ComponentPad*%
%ADD30R,2.200000X2.200000*%
%TD*%
%TA.AperFunction,ComponentPad*%
%ADD31O,2.200000X2.200000*%
%TD*%
%TA.AperFunction,Conductor*%
%ADD32C,1.000000*%
%TD*%
%TA.AperFunction,Conductor*%
%ADD33C,5.000000*%
%TD*%
%TA.AperFunction,Conductor*%
%ADD34C,2.000000*%
%TD*%
%TA.AperFunction,Conductor*%
%ADD35C,0.500000*%
%TD*%
G04 APERTURE END LIST*
D10*
%TO.P,R24,1*%
%TO.N,PWRGND*%
X142240000Y-60325000D03*
D11*
%TO.P,R24,2*%
%TO.N,Net-(C15-Pad2)*%
X157480000Y-60325000D03*
%TD*%
D12*
%TO.P,R19,1*%
%TO.N,/LP+*%
X154178000Y-18542000D03*
D13*
%TO.P,R19,2*%
%TO.N,Net-(Q10-E)*%
X146558000Y-18542000D03*
%TD*%
D14*
%TO.P,Q13,1,E*%
%TO.N,Net-(Q13-E)*%
X161047000Y-33141000D03*
D15*
%TO.P,Q13,2,C*%
%TO.N,B+*%
X163327000Y-33141000D03*
%TO.P,Q13,3,B*%
%TO.N,Net-(Q10-C)*%
X165607000Y-33141000D03*
%TD*%
D12*
%TO.P,R20,1*%
%TO.N,Net-(Q12-E)*%
X151765000Y-114935000D03*
D13*
%TO.P,R20,2*%
%TO.N,/LP-*%
X159385000Y-114935000D03*
%TD*%
D16*
%TO.P,C7,1*%
%TO.N,Net-(Q10-C)*%
X177832000Y-65532000D03*
D17*
%TO.P,C7,2*%
%TO.N,Net-(Q11-E)*%
X179832000Y-65532000D03*
%TD*%
D18*
%TO.P,D1,1,K*%
%TO.N,Net-(D1-K)*%
X129032000Y-104140000D03*
D19*
%TO.P,D1,2,A*%
%TO.N,Net-(D1-A)*%
X121412000Y-104140000D03*
%TD*%
D20*
%TO.P,Q17,1,G*%
%TO.N,Net-(Q17-G)*%
X197104000Y-74168000D03*
D21*
%TO.P,Q17,2,D*%
%TO.N,B-*%
X197104000Y-79618000D03*
%TO.P,Q17,3,S*%
%TO.N,Net-(Q17-S)*%
X197104000Y-85068000D03*
%TD*%
D22*
%TO.P,C26,1*%
%TO.N,Net-(Q2-C)*%
X135676000Y-100076000D03*
%TO.P,C26,2*%
%TO.N,Net-(C26-Pad2)*%
X140676000Y-100076000D03*
%TD*%
D18*
%TO.P,D2,1,K*%
%TO.N,Net-(D1-A)*%
X121483712Y-108712000D03*
D19*
%TO.P,D2,2,A*%
%TO.N,Net-(D1-K)*%
X129103712Y-108712000D03*
%TD*%
D12*
%TO.P,R14,1*%
%TO.N,Net-(D1-K)*%
X148336000Y-82296000D03*
D13*
%TO.P,R14,2*%
%TO.N,/SPEAKER*%
X155956000Y-82296000D03*
%TD*%
D23*
%TO.P,Q5,1,E*%
%TO.N,Net-(Q5-E)*%
X126809712Y-112776000D03*
D24*
%TO.P,Q5,2,B*%
%TO.N,Net-(Q3-B)*%
X129349712Y-115316000D03*
%TO.P,Q5,3,C*%
X126809712Y-117856000D03*
%TD*%
D22*
%TO.P,R43,1*%
%TO.N,/LP+*%
X157734000Y-11938000D03*
D19*
%TO.P,R43,2*%
%TO.N,B+*%
X167894000Y-11938000D03*
%TD*%
D23*
%TO.P,Q7,1,E*%
%TO.N,/LP-*%
X148590000Y-123452000D03*
D24*
%TO.P,Q7,2,B*%
%TO.N,Net-(Q12-E)*%
X151130000Y-120912000D03*
%TO.P,Q7,3,C*%
%TO.N,Net-(Q2-C)*%
X153670000Y-123452000D03*
%TD*%
D22*
%TO.P,C9,1*%
%TO.N,Net-(Q11-E)*%
X164425000Y-101346000D03*
%TO.P,C9,2*%
%TO.N,PWRGND*%
X159425000Y-101346000D03*
%TD*%
%TO.P,R17,1*%
%TO.N,Net-(Q10-C)*%
X185420000Y-64360000D03*
D19*
%TO.P,R17,2*%
%TO.N,Net-(Q11-B)*%
X185420000Y-66900000D03*
%TD*%
D25*
%TO.P,Q11,1,E*%
%TO.N,Net-(Q11-E)*%
X197491000Y-63765000D03*
D26*
%TO.P,Q11,2,C*%
%TO.N,Net-(Q10-C)*%
X197491000Y-66045000D03*
%TO.P,Q11,3,B*%
%TO.N,Net-(Q11-B)*%
X197491000Y-68325000D03*
%TD*%
D23*
%TO.P,Q1,1,E*%
%TO.N,/LP+*%
X123190000Y-53856000D03*
D24*
%TO.P,Q1,2,B*%
%TO.N,Net-(Q1-B)*%
X125730000Y-51316000D03*
%TO.P,Q1,3,C*%
%TO.N,Net-(Q1-C)*%
X128270000Y-53856000D03*
%TD*%
D12*
%TO.P,R32,1*%
%TO.N,Net-(D6-A)*%
X184150000Y-74295000D03*
D13*
%TO.P,R32,2*%
%TO.N,Net-(Q17-G)*%
X191770000Y-74295000D03*
%TD*%
D12*
%TO.P,R3,1*%
%TO.N,Net-(C1-Pad1)*%
X106172000Y-89916000D03*
D13*
%TO.P,R3,2*%
%TO.N,Net-(C3-Pad2)*%
X113792000Y-89916000D03*
%TD*%
D12*
%TO.P,R1,1*%
%TO.N,Net-(C1-Pad1)*%
X106172000Y-116332000D03*
D13*
%TO.P,R1,2*%
%TO.N,Net-(J1-Pin_2)*%
X113792000Y-116332000D03*
%TD*%
D10*
%TO.P,R30,1*%
%TO.N,/SPEAKER*%
X175260000Y-85090000D03*
D11*
%TO.P,R30,2*%
%TO.N,Net-(Q17-S)*%
X190500000Y-85090000D03*
%TD*%
D10*
%TO.P,R28,1*%
%TO.N,Net-(Q15-S)*%
X190500000Y-40640000D03*
D11*
%TO.P,R28,2*%
%TO.N,/SPEAKER*%
X175260000Y-40640000D03*
%TD*%
D10*
%TO.P,R31,1*%
%TO.N,/SPEAKER*%
X175260000Y-102870000D03*
D11*
%TO.P,R31,2*%
%TO.N,Net-(Q16-S)*%
X190500000Y-102870000D03*
%TD*%
D23*
%TO.P,Q8,1,E*%
%TO.N,Net-(Q12-B)*%
X144780000Y-110625000D03*
D24*
%TO.P,Q8,2,B*%
%TO.N,Net-(Q2-C)*%
X147320000Y-108085000D03*
%TO.P,Q8,3,C*%
%TO.N,PWRGND*%
X149860000Y-110625000D03*
%TD*%
D18*
%TO.P,C4,1*%
%TO.N,Net-(D3-K)*%
X141340651Y-90170000D03*
D22*
%TO.P,C4,2*%
%TO.N,GNDS*%
X136340651Y-90170000D03*
%TD*%
D12*
%TO.P,R27,1*%
%TO.N,Net-(D4-K)*%
X184150000Y-46990000D03*
D13*
%TO.P,R27,2*%
%TO.N,Net-(Q18-G)*%
X191770000Y-46990000D03*
%TD*%
D12*
%TO.P,R8,1*%
%TO.N,Net-(Q2-E)*%
X121412000Y-84709000D03*
D13*
%TO.P,R8,2*%
%TO.N,Net-(Q4-C)*%
X129032000Y-84709000D03*
%TD*%
D23*
%TO.P,Q3,1,E*%
%TO.N,Net-(Q3-E)*%
X122507712Y-117856000D03*
D24*
%TO.P,Q3,2,B*%
%TO.N,Net-(Q3-B)*%
X119967712Y-115316000D03*
%TO.P,Q3,3,C*%
%TO.N,Net-(Q2-C)*%
X122507712Y-112776000D03*
%TD*%
D22*
%TO.P,R18,1*%
%TO.N,Net-(R18-Pad1)*%
X192405000Y-66450000D03*
D19*
%TO.P,R18,2*%
%TO.N,Net-(Q11-E)*%
X192405000Y-63910000D03*
%TD*%
D22*
%TO.P,R44,1*%
%TO.N,/LP-*%
X152908000Y-129794000D03*
D19*
%TO.P,R44,2*%
%TO.N,B-*%
X163068000Y-129794000D03*
%TD*%
D16*
%TO.P,C2,1*%
%TO.N,/LP+*%
X135636000Y-38870000D03*
D17*
%TO.P,C2,2*%
%TO.N,Net-(C2-Pad2)*%
X133636000Y-38870000D03*
%TD*%
D16*
%TO.P,C5,1*%
%TO.N,/LP+*%
X125000000Y-25654000D03*
D17*
%TO.P,C5,2*%
%TO.N,Net-(C5-Pad2)*%
X127000000Y-25654000D03*
%TD*%
D23*
%TO.P,Q6,1,E*%
%TO.N,Net-(Q6-E)*%
X126992000Y-94742000D03*
D24*
%TO.P,Q6,2,B*%
%TO.N,Net-(D1-K)*%
X129532000Y-97282000D03*
%TO.P,Q6,3,C*%
%TO.N,Net-(Q3-B)*%
X126992000Y-99822000D03*
%TD*%
D20*
%TO.P,Q16,1,G*%
%TO.N,Net-(Q16-G)*%
X197104000Y-92224000D03*
D21*
%TO.P,Q16,2,D*%
%TO.N,B-*%
X197104000Y-97674000D03*
%TO.P,Q16,3,S*%
%TO.N,Net-(Q16-S)*%
X197104000Y-103124000D03*
%TD*%
D27*
%TO.P,RV1,1,1*%
%TO.N,Net-(Q11-B)*%
X173355000Y-72390000D03*
%TO.P,RV1,2,2*%
X175895000Y-72390000D03*
%TO.P,RV1,3,3*%
%TO.N,Net-(R18-Pad1)*%
X178435000Y-72390000D03*
%TD*%
D12*
%TO.P,R6,1*%
%TO.N,Net-(C2-Pad2)*%
X122174000Y-33028000D03*
D13*
%TO.P,R6,2*%
%TO.N,PWRGND*%
X129794000Y-33028000D03*
%TD*%
D10*
%TO.P,R29,1*%
%TO.N,Net-(Q18-S)*%
X190500000Y-57785000D03*
D11*
%TO.P,R29,2*%
%TO.N,/SPEAKER*%
X175260000Y-57785000D03*
%TD*%
D22*
%TO.P,C6,1*%
%TO.N,Net-(C26-Pad2)*%
X135676000Y-105410000D03*
%TO.P,C6,2*%
%TO.N,Net-(Q11-E)*%
X140676000Y-105410000D03*
%TD*%
D28*
%TO.P,J7,1,1*%
%TO.N,PWRGND*%
X111760000Y-73660000D03*
%TO.P,J7,2,2*%
X111760000Y-68580000D03*
%TD*%
D14*
%TO.P,Q10,1,E*%
%TO.N,Net-(Q10-E)*%
X147960110Y-26675000D03*
D15*
%TO.P,Q10,2,C*%
%TO.N,Net-(Q10-C)*%
X150240110Y-26675000D03*
%TO.P,Q10,3,B*%
%TO.N,Net-(Q10-B)*%
X152520110Y-26675000D03*
%TD*%
D18*
%TO.P,D7,1,K*%
%TO.N,Net-(D6-K)*%
X175260000Y-116205000D03*
D19*
%TO.P,D7,2,A*%
%TO.N,/SPEAKER*%
X175260000Y-108585000D03*
%TD*%
D12*
%TO.P,R4,1*%
%TO.N,GNDS*%
X106172000Y-101600000D03*
D13*
%TO.P,R4,2*%
%TO.N,Net-(D1-A)*%
X113792000Y-101600000D03*
%TD*%
D16*
%TO.P,C3,1*%
%TO.N,Net-(D1-A)*%
X109009401Y-95504000D03*
D17*
%TO.P,C3,2*%
%TO.N,Net-(C3-Pad2)*%
X111009401Y-95504000D03*
%TD*%
D22*
%TO.P,C11,1*%
%TO.N,PWRGND*%
X185420000Y-21844000D03*
%TO.P,C11,2*%
%TO.N,B+*%
X190420000Y-21844000D03*
%TD*%
%TO.P,C10,1*%
%TO.N,Net-(Q13-E)*%
X147320000Y-69255000D03*
%TO.P,C10,2*%
%TO.N,Net-(Q14-E)*%
X147320000Y-74255000D03*
%TD*%
D12*
%TO.P,R13,1*%
%TO.N,Net-(Q12-B)*%
X145415000Y-103505000D03*
D13*
%TO.P,R13,2*%
%TO.N,/LP-*%
X153035000Y-103505000D03*
%TD*%
D28*
%TO.P,J5,1,1*%
%TO.N,/SPEAKER*%
X159485000Y-73025000D03*
%TO.P,J5,2,2*%
X159485000Y-67945000D03*
%TD*%
D12*
%TO.P,R10,1*%
%TO.N,Net-(Q4-C)*%
X129032000Y-78359000D03*
D13*
%TO.P,R10,2*%
%TO.N,Net-(Q6-E)*%
X121412000Y-78359000D03*
%TD*%
D12*
%TO.P,R26,1*%
%TO.N,Net-(D6-A)*%
X184150000Y-92075000D03*
D13*
%TO.P,R26,2*%
%TO.N,Net-(Q16-G)*%
X191770000Y-92075000D03*
%TD*%
D12*
%TO.P,R22,1*%
%TO.N,Net-(Q13-E)*%
X159385000Y-39116000D03*
D13*
%TO.P,R22,2*%
%TO.N,Net-(D4-K)*%
X167005000Y-39116000D03*
%TD*%
D12*
%TO.P,R25,1*%
%TO.N,Net-(D4-K)*%
X184150000Y-29845000D03*
D13*
%TO.P,R25,2*%
%TO.N,Net-(Q15-G)*%
X191770000Y-29845000D03*
%TD*%
D12*
%TO.P,R16,1*%
%TO.N,Net-(C5-Pad2)*%
X134112000Y-18542000D03*
D13*
%TO.P,R16,2*%
%TO.N,PWRGND*%
X141732000Y-18542000D03*
%TD*%
D12*
%TO.P,R21,1*%
%TO.N,Net-(Q13-E)*%
X153035000Y-67945000D03*
D13*
%TO.P,R21,2*%
%TO.N,Net-(Q14-E)*%
X153035000Y-75565000D03*
%TD*%
D28*
%TO.P,J6,1,1*%
%TO.N,PWRGND*%
X105510000Y-73660000D03*
%TO.P,J6,2,2*%
X105510000Y-68580000D03*
%TD*%
D12*
%TO.P,R46,1*%
%TO.N,Net-(C26-Pad2)*%
X151892000Y-95250000D03*
D13*
%TO.P,R46,2*%
%TO.N,PWRGND*%
X159512000Y-95250000D03*
%TD*%
D18*
%TO.P,C14,1*%
%TO.N,PWRGND*%
X191907349Y-117475000D03*
D22*
%TO.P,C14,2*%
%TO.N,B-*%
X196907349Y-117475000D03*
%TD*%
D23*
%TO.P,Q9,1,E*%
%TO.N,/LP+*%
X136906000Y-27186000D03*
D24*
%TO.P,Q9,2,B*%
%TO.N,Net-(Q10-E)*%
X139446000Y-24646000D03*
%TO.P,Q9,3,C*%
%TO.N,Net-(Q10-B)*%
X141986000Y-27186000D03*
%TD*%
D16*
%TO.P,C25,1*%
%TO.N,PWRGND*%
X145585401Y-129286000D03*
D17*
%TO.P,C25,2*%
%TO.N,/LP-*%
X147585401Y-129286000D03*
%TD*%
D12*
%TO.P,R11,1*%
%TO.N,Net-(Q5-E)*%
X121229712Y-123190000D03*
D13*
%TO.P,R11,2*%
%TO.N,/LP-*%
X128849712Y-123190000D03*
%TD*%
D16*
%TO.P,C24,1*%
%TO.N,/LP+*%
X145066000Y-11938000D03*
D17*
%TO.P,C24,2*%
%TO.N,PWRGND*%
X147066000Y-11938000D03*
%TD*%
D29*
%TO.P,J1,1,Pin_1*%
%TO.N,GNDS*%
X109749500Y-126464000D03*
D10*
%TO.P,J1,2,Pin_2*%
%TO.N,Net-(J1-Pin_2)*%
X109749500Y-122964000D03*
%TD*%
D23*
%TO.P,Q4,1,E*%
%TO.N,Net-(Q1-B)*%
X123190000Y-62746000D03*
D24*
%TO.P,Q4,2,B*%
%TO.N,Net-(Q1-C)*%
X125730000Y-60206000D03*
%TO.P,Q4,3,C*%
%TO.N,Net-(Q4-C)*%
X128270000Y-62746000D03*
%TD*%
D20*
%TO.P,Q15,1,G*%
%TO.N,Net-(Q15-G)*%
X197104000Y-29602000D03*
D21*
%TO.P,Q15,2,D*%
%TO.N,B+*%
X197104000Y-35052000D03*
%TO.P,Q15,3,S*%
%TO.N,Net-(Q15-S)*%
X197104000Y-40502000D03*
%TD*%
D12*
%TO.P,R12,1*%
%TO.N,Net-(D3-K)*%
X135890000Y-82296000D03*
D13*
%TO.P,R12,2*%
%TO.N,Net-(D1-K)*%
X143510000Y-82296000D03*
%TD*%
D12*
%TO.P,R45,1*%
%TO.N,/SPEAKER*%
X159512000Y-90424000D03*
D13*
%TO.P,R45,2*%
%TO.N,Net-(C26-Pad2)*%
X151892000Y-90424000D03*
%TD*%
D22*
%TO.P,C15,1*%
%TO.N,/SPEAKER*%
X164806000Y-53340000D03*
%TO.P,C15,2*%
%TO.N,Net-(C15-Pad2)*%
X159806000Y-53340000D03*
%TD*%
D12*
%TO.P,R9,1*%
%TO.N,/LP+*%
X122174000Y-44966000D03*
D13*
%TO.P,R9,2*%
%TO.N,Net-(Q1-B)*%
X129794000Y-44966000D03*
%TD*%
D30*
%TO.P,D4,1,K*%
%TO.N,Net-(D4-K)*%
X173736000Y-10414000D03*
D31*
%TO.P,D4,2,A*%
%TO.N,Net-(D4-A)*%
X173736000Y-20574000D03*
%TD*%
D18*
%TO.P,C13,1*%
%TO.N,B+*%
X196712651Y-15875000D03*
D22*
%TO.P,C13,2*%
%TO.N,PWRGND*%
X191712651Y-15875000D03*
%TD*%
D28*
%TO.P,J4,1,1*%
%TO.N,B+*%
X191770000Y-3810000D03*
%TO.P,J4,2,2*%
X196850000Y-3810000D03*
%TD*%
D14*
%TO.P,Q12,1,E*%
%TO.N,Net-(Q12-E)*%
X147563000Y-115570000D03*
D15*
%TO.P,Q12,2,C*%
%TO.N,Net-(Q11-E)*%
X145283000Y-115570000D03*
%TO.P,Q12,3,B*%
%TO.N,Net-(Q12-B)*%
X143003000Y-115570000D03*
%TD*%
D30*
%TO.P,D6,1,K*%
%TO.N,Net-(D6-K)*%
X175260000Y-120015000D03*
D31*
%TO.P,D6,2,A*%
%TO.N,Net-(D6-A)*%
X175260000Y-130175000D03*
%TD*%
D12*
%TO.P,R5,1*%
%TO.N,Net-(Q1-C)*%
X129794000Y-38616000D03*
D13*
%TO.P,R5,2*%
%TO.N,Net-(C2-Pad2)*%
X122174000Y-38616000D03*
%TD*%
D30*
%TO.P,D8,1,K*%
%TO.N,B+*%
X185420000Y-6985000D03*
D31*
%TO.P,D8,2,A*%
%TO.N,PWRGND*%
X185420000Y-17145000D03*
%TD*%
D12*
%TO.P,R23,1*%
%TO.N,Net-(Q14-E)*%
X163195000Y-115570000D03*
D13*
%TO.P,R23,2*%
%TO.N,Net-(D6-A)*%
X170815000Y-115570000D03*
%TD*%
D22*
%TO.P,C8,1*%
%TO.N,Net-(Q10-C)*%
X165822000Y-22098000D03*
%TO.P,C8,2*%
%TO.N,PWRGND*%
X160822000Y-22098000D03*
%TD*%
D18*
%TO.P,D3,1,K*%
%TO.N,Net-(D3-K)*%
X146050000Y-86360000D03*
D19*
%TO.P,D3,2,A*%
%TO.N,GNDS*%
X146050000Y-93980000D03*
%TD*%
D20*
%TO.P,Q18,1,G*%
%TO.N,Net-(Q18-G)*%
X197104000Y-47128000D03*
D21*
%TO.P,Q18,2,D*%
%TO.N,B+*%
X197104000Y-52578000D03*
%TO.P,Q18,3,S*%
%TO.N,Net-(Q18-S)*%
X197104000Y-58028000D03*
%TD*%
D12*
%TO.P,R7,1*%
%TO.N,Net-(Q3-E)*%
X121229712Y-127508000D03*
D13*
%TO.P,R7,2*%
%TO.N,/LP-*%
X128849712Y-127508000D03*
%TD*%
D12*
%TO.P,R2,1*%
%TO.N,GNDS*%
X128778000Y-90424000D03*
D13*
%TO.P,R2,2*%
%TO.N,PWRGND*%
X121158000Y-90424000D03*
%TD*%
D14*
%TO.P,Q14,1,E*%
%TO.N,Net-(Q14-E)*%
X164465000Y-108585000D03*
D15*
%TO.P,Q14,2,C*%
%TO.N,B-*%
X162185000Y-108585000D03*
%TO.P,Q14,3,B*%
%TO.N,Net-(Q11-E)*%
X159905000Y-108585000D03*
%TD*%
D18*
%TO.P,D5,1,K*%
%TO.N,/SPEAKER*%
X173736000Y-33655000D03*
D19*
%TO.P,D5,2,A*%
%TO.N,Net-(D4-A)*%
X173736000Y-26035000D03*
%TD*%
D12*
%TO.P,R15,1*%
%TO.N,Net-(Q10-B)*%
X122428000Y-18542000D03*
D13*
%TO.P,R15,2*%
%TO.N,Net-(C5-Pad2)*%
X130048000Y-18542000D03*
%TD*%
D23*
%TO.P,Q2,1,E*%
%TO.N,Net-(Q2-E)*%
X122682000Y-99822000D03*
D24*
%TO.P,Q2,2,B*%
%TO.N,Net-(D1-A)*%
X120142000Y-97282000D03*
%TO.P,Q2,3,C*%
%TO.N,Net-(Q2-C)*%
X122682000Y-94742000D03*
%TD*%
D28*
%TO.P,J3,1,1*%
%TO.N,B-*%
X191262000Y-131318000D03*
%TO.P,J3,2,2*%
X196342000Y-131318000D03*
%TD*%
D22*
%TO.P,C12,1*%
%TO.N,B-*%
X189230000Y-109220000D03*
%TO.P,C12,2*%
%TO.N,PWRGND*%
X184230000Y-109220000D03*
%TD*%
%TO.P,C1,1*%
%TO.N,Net-(C1-Pad1)*%
X107482000Y-108458000D03*
%TO.P,C1,2*%
%TO.N,GNDS*%
X112482000Y-108458000D03*
%TD*%
D30*
%TO.P,D9,1,K*%
%TO.N,PWRGND*%
X185420000Y-118110000D03*
D31*
%TO.P,D9,2,A*%
%TO.N,B-*%
X185420000Y-128270000D03*
%TD*%
D32*
%TO.N,Net-(Q10-C)*%
X164901055Y-23820945D02*
X165607000Y-24526890D01*
X164901055Y-23018945D02*
X164901055Y-23820945D01*
X165607000Y-24526890D02*
X165607000Y-33141000D01*
X165822000Y-22098000D02*
X164901055Y-23018945D01*
X151116110Y-23899000D02*
X164021000Y-23899000D01*
X164021000Y-23899000D02*
X165822000Y-22098000D01*
X150240110Y-24775000D02*
X151116110Y-23899000D01*
X150240110Y-26675000D02*
X150240110Y-24775000D01*
%TO.N,Net-(Q3-E)*%
X119528712Y-125807000D02*
X121229712Y-127508000D01*
X122507712Y-117856000D02*
X119528712Y-120835000D01*
X119528712Y-120835000D02*
X119528712Y-125807000D01*
%TO.N,GNDS*%
X140150651Y-93980000D02*
X136340651Y-90170000D01*
X146050000Y-93980000D02*
X140150651Y-93980000D01*
X128778000Y-90424000D02*
X136086651Y-90424000D01*
X136086651Y-90424000D02*
X136340651Y-90170000D01*
%TO.N,Net-(C3-Pad2)*%
X113792000Y-92721401D02*
X111009401Y-95504000D01*
X113792000Y-89916000D02*
X113792000Y-92721401D01*
D33*
%TO.N,B+*%
X191770000Y-3810000D02*
X196850000Y-3810000D01*
X186309000Y-7874000D02*
X185420000Y-6985000D01*
D32*
X163751000Y-33954780D02*
X163751000Y-33141000D01*
D33*
X196712651Y-16682719D02*
X196712651Y-15875000D01*
D32*
X170815000Y-6985000D02*
X185420000Y-6985000D01*
D33*
X196850000Y-3810000D02*
X196850000Y-7620000D01*
X196850000Y-7620000D02*
X202866000Y-13636000D01*
X190420000Y-21844000D02*
X191551370Y-21844000D01*
X192024000Y-7874000D02*
X186309000Y-7874000D01*
D32*
X167894000Y-9906000D02*
X167894000Y-33523780D01*
D33*
X191770000Y-7620000D02*
X192024000Y-7874000D01*
X191551370Y-21844000D02*
X196712651Y-16682719D01*
D32*
X167894000Y-9906000D02*
X170815000Y-6985000D01*
D33*
X197104000Y-7874000D02*
X197104000Y-15483651D01*
X200447000Y-34503000D02*
X197104000Y-34503000D01*
D32*
X163751000Y-33141000D02*
X163327000Y-33141000D01*
X164838220Y-35042000D02*
X163751000Y-33954780D01*
D33*
X202866000Y-13636000D02*
X202866000Y-52066000D01*
X202649000Y-52283000D02*
X197104000Y-52283000D01*
X191770000Y-3810000D02*
X191770000Y-7620000D01*
X197104000Y-15483651D02*
X196712651Y-15875000D01*
D32*
X166375780Y-35042000D02*
X164838220Y-35042000D01*
D33*
X202866000Y-52066000D02*
X202649000Y-52283000D01*
X197104000Y-7874000D02*
X192024000Y-7874000D01*
D32*
X167894000Y-33523780D02*
X166375780Y-35042000D01*
D33*
%TO.N,B-*%
X191262000Y-127127002D02*
X191135000Y-127000002D01*
X202692000Y-95493000D02*
X200511000Y-97674000D01*
D32*
X161494000Y-124024220D02*
X165292890Y-127823110D01*
D33*
X191262000Y-131318000D02*
X191262000Y-127127002D01*
X196907349Y-117475000D02*
X196907349Y-116343630D01*
D32*
X161494000Y-112191000D02*
X161494000Y-124024220D01*
D33*
X191135002Y-127000000D02*
X196907349Y-127000000D01*
D32*
X165292890Y-127823110D02*
X169745780Y-132276000D01*
D33*
X202692000Y-81534000D02*
X202692000Y-95493000D01*
X197104000Y-79566000D02*
X200724000Y-79566000D01*
X186689998Y-127000002D02*
X191135000Y-127000002D01*
X202692000Y-99855000D02*
X200511000Y-97674000D01*
X196215000Y-127692349D02*
X196907349Y-127000000D01*
X202692000Y-111690349D02*
X202692000Y-99855000D01*
X191262000Y-131318000D02*
X196342000Y-131318000D01*
X200511000Y-97674000D02*
X200205000Y-97368000D01*
X196342000Y-127819349D02*
X196215000Y-127692349D01*
X196342000Y-131318000D02*
X196342000Y-127819349D01*
D32*
X162185000Y-111500000D02*
X161494000Y-112191000D01*
X181414000Y-132276000D02*
X186689998Y-127000002D01*
X162185000Y-108585000D02*
X162185000Y-111500000D01*
D33*
X191135000Y-127000002D02*
X191135002Y-127000000D01*
X200205000Y-97368000D02*
X197104000Y-97368000D01*
D32*
X163068000Y-129794000D02*
X165038890Y-127823110D01*
D33*
X189783719Y-109220000D02*
X189230000Y-109220000D01*
X196907349Y-116343630D02*
X189783719Y-109220000D01*
D32*
X169745780Y-132276000D02*
X181414000Y-132276000D01*
D33*
X200724000Y-79566000D02*
X202692000Y-81534000D01*
X196907349Y-117475000D02*
X196907349Y-127000000D01*
D32*
X165038890Y-127823110D02*
X165292890Y-127823110D01*
D33*
X185420000Y-128270000D02*
X186689998Y-127000002D01*
X196907349Y-117475000D02*
X202692000Y-111690349D01*
D32*
%TO.N,/SPEAKER*%
X175260000Y-108585000D02*
X175260000Y-102870000D01*
D33*
X175260000Y-40005000D02*
X175260000Y-57785000D01*
X159485000Y-73025000D02*
X159485000Y-75665000D01*
D32*
X175260000Y-40005000D02*
X175260000Y-35179000D01*
X175260000Y-35179000D02*
X173736000Y-33655000D01*
D33*
X159485000Y-75665000D02*
X168910000Y-85090000D01*
D34*
X164806000Y-53340000D02*
X170815000Y-53340000D01*
D32*
X159512000Y-85852000D02*
X155956000Y-82296000D01*
D33*
X169645000Y-57785000D02*
X159485000Y-67945000D01*
D32*
X155956000Y-79194000D02*
X159485000Y-75665000D01*
D33*
X168910000Y-85090000D02*
X175260000Y-85090000D01*
D32*
X159512000Y-90424000D02*
X159512000Y-85852000D01*
D34*
X170815000Y-53340000D02*
X175260000Y-57785000D01*
D33*
X175260000Y-57785000D02*
X169645000Y-57785000D01*
X175260000Y-102870000D02*
X175260000Y-85090000D01*
X159485000Y-67945000D02*
X159485000Y-73025000D01*
D32*
X155956000Y-82296000D02*
X155956000Y-79194000D01*
D35*
%TO.N,Net-(Q11-B)*%
X197491000Y-68325000D02*
X196815000Y-69001000D01*
X179705000Y-68580000D02*
X175895000Y-72390000D01*
X196815000Y-69001000D02*
X187521000Y-69001000D01*
X187521000Y-69001000D02*
X185420000Y-66900000D01*
X175895000Y-72390000D02*
X173355000Y-72390000D01*
X185420000Y-66900000D02*
X183740000Y-68580000D01*
X183740000Y-68580000D02*
X179705000Y-68580000D01*
D32*
%TO.N,Net-(Q1-C)*%
X128270000Y-57666000D02*
X128270000Y-53856000D01*
X125730000Y-60206000D02*
X128270000Y-57666000D01*
%TO.N,PWRGND*%
X115493000Y-124176866D02*
X115493000Y-105841000D01*
X107408401Y-91085177D02*
X107873000Y-90620578D01*
X120602134Y-129286000D02*
X115493000Y-124176866D01*
X107408401Y-97756401D02*
X107408401Y-91085177D01*
X107873000Y-76023000D02*
X105510000Y-73660000D01*
X115493000Y-105841000D02*
X107408401Y-97756401D01*
X107873000Y-90620578D02*
X107873000Y-76023000D01*
X145585401Y-129286000D02*
X120602134Y-129286000D01*
%TO.N,Net-(Q13-E)*%
X147320000Y-69255000D02*
X151725000Y-69255000D01*
X159385000Y-39116000D02*
X159385000Y-34803000D01*
X151725000Y-69255000D02*
X153035000Y-67945000D01*
X159385000Y-34803000D02*
X161047000Y-33141000D01*
X153035000Y-45466000D02*
X153035000Y-67945000D01*
X159385000Y-39116000D02*
X153035000Y-45466000D01*
%TO.N,Net-(D3-K)*%
X139827000Y-86487000D02*
X141340651Y-88000651D01*
X141340651Y-88000651D02*
X141340651Y-90170000D01*
X146050000Y-86360000D02*
X139954000Y-86360000D01*
X135890000Y-82550000D02*
X139827000Y-86487000D01*
X135890000Y-82296000D02*
X135890000Y-82550000D01*
X139954000Y-86360000D02*
X139827000Y-86487000D01*
%TO.N,Net-(Q3-B)*%
X125058712Y-106335288D02*
X125058712Y-115987288D01*
X124714000Y-116332000D02*
X126238000Y-117856000D01*
X126992000Y-104402000D02*
X125058712Y-106335288D01*
X126992000Y-99822000D02*
X126992000Y-104402000D01*
X125058712Y-115987288D02*
X124714000Y-116332000D01*
X119967712Y-115316000D02*
X123698000Y-115316000D01*
X123698000Y-115316000D02*
X124714000Y-116332000D01*
X126238000Y-117856000D02*
X126809712Y-117856000D01*
X126809712Y-117856000D02*
X129349712Y-115316000D01*
%TO.N,Net-(Q5-E)*%
X123952000Y-123190000D02*
X131100712Y-116041288D01*
X121229712Y-123190000D02*
X123952000Y-123190000D01*
X131100712Y-116041288D02*
X131100712Y-114590712D01*
X129286000Y-112776000D02*
X126809712Y-112776000D01*
X131100712Y-114590712D02*
X129286000Y-112776000D01*
%TO.N,Net-(Q12-E)*%
X151130000Y-120912000D02*
X151130000Y-115570000D01*
X147563000Y-115570000D02*
X151130000Y-115570000D01*
X151130000Y-115570000D02*
X151765000Y-114935000D01*
%TO.N,Net-(Q11-E)*%
X153281578Y-101346000D02*
X154736000Y-102800422D01*
D35*
X192405000Y-63910000D02*
X191304000Y-62809000D01*
X179832000Y-64885600D02*
X179832000Y-65532000D01*
D32*
X143029000Y-102783211D02*
X144466211Y-101346000D01*
D35*
X191304000Y-62809000D02*
X181908600Y-62809000D01*
D32*
X143734106Y-102137894D02*
X143734106Y-102078106D01*
X154736000Y-102800422D02*
X154736000Y-107427500D01*
X145155000Y-114093000D02*
X143029000Y-111967000D01*
X144466211Y-101346000D02*
X153281578Y-101346000D01*
X145155000Y-115570000D02*
X145155000Y-114093000D01*
X143029000Y-111967000D02*
X143029000Y-103485422D01*
D35*
X197491000Y-63765000D02*
X192550000Y-63765000D01*
D32*
X154736000Y-107427500D02*
X155893500Y-108585000D01*
X140676000Y-105196000D02*
X143734106Y-102137894D01*
X143029000Y-102783212D02*
X143029000Y-103485422D01*
X143734106Y-102078106D02*
X143029000Y-102783212D01*
X143029000Y-103485422D02*
X143029000Y-102783211D01*
X155893500Y-108585000D02*
X159905000Y-108585000D01*
D35*
X181908600Y-62809000D02*
X179832000Y-64885600D01*
D32*
%TO.N,Net-(Q14-E)*%
X157811000Y-91128578D02*
X158807422Y-92125000D01*
X151725000Y-74255000D02*
X152717500Y-75247500D01*
X152717500Y-75247500D02*
X152717500Y-85661500D01*
X152717500Y-85661500D02*
X157811000Y-90755000D01*
X167322500Y-105727500D02*
X164465000Y-108585000D01*
X158807422Y-92125000D02*
X159181000Y-92125000D01*
X147320000Y-74255000D02*
X151725000Y-74255000D01*
X159181000Y-92125000D02*
X167322500Y-100266500D01*
X163195000Y-115570000D02*
X164465000Y-114300000D01*
X164465000Y-114300000D02*
X164465000Y-108585000D01*
X157811000Y-90755000D02*
X157811000Y-91128578D01*
X152717500Y-75247500D02*
X153035000Y-75565000D01*
X167322500Y-100266500D02*
X167322500Y-105727500D01*
%TO.N,Net-(Q2-E)*%
X122682000Y-97218288D02*
X119457000Y-93993288D01*
X119457000Y-86664000D02*
X121412000Y-84709000D01*
X119457000Y-93993288D02*
X119457000Y-86664000D01*
X122682000Y-99822000D02*
X122682000Y-97218288D01*
%TO.N,Net-(C1-Pad1)*%
X104471000Y-105447000D02*
X104471000Y-91617000D01*
X106172000Y-116332000D02*
X106172000Y-109768000D01*
X106172000Y-109768000D02*
X107482000Y-108458000D01*
X107482000Y-108458000D02*
X104471000Y-105447000D01*
X104471000Y-91617000D02*
X106172000Y-89916000D01*
%TO.N,Net-(C2-Pad2)*%
X122174000Y-35814000D02*
X130580000Y-35814000D01*
X122174000Y-38616000D02*
X122174000Y-35814000D01*
X130580000Y-35814000D02*
X133636000Y-38870000D01*
X122174000Y-38616000D02*
X122174000Y-33028000D01*
%TO.N,Net-(D1-A)*%
X121483712Y-108712000D02*
X121483712Y-104211712D01*
X120142000Y-102870000D02*
X120142000Y-97282000D01*
X113792000Y-100550755D02*
X113792000Y-101600000D01*
X113792000Y-101600000D02*
X118872000Y-101600000D01*
X109009401Y-95768156D02*
X113792000Y-100550755D01*
X109009401Y-95504000D02*
X109009401Y-95768156D01*
X121412000Y-104140000D02*
X120142000Y-102870000D01*
X118872000Y-101600000D02*
X121412000Y-104140000D01*
%TO.N,Net-(C5-Pad2)*%
X134112000Y-18542000D02*
X130048000Y-18542000D01*
X127000000Y-21590000D02*
X130048000Y-18542000D01*
X127000000Y-25654000D02*
X127000000Y-21590000D01*
%TO.N,Net-(Q2-C)*%
X153670000Y-123452000D02*
X153670000Y-114434422D01*
X122507712Y-112776000D02*
X123558712Y-111725000D01*
X124436000Y-96496000D02*
X122682000Y-94742000D01*
X123558712Y-105713968D02*
X124433000Y-104839680D01*
X124433000Y-100192320D02*
X124436000Y-100189320D01*
X153670000Y-114434422D02*
X151611578Y-112376000D01*
X123558712Y-111725000D02*
X123558712Y-105713968D01*
X151611578Y-112376000D02*
X149052000Y-112376000D01*
X124436000Y-100189320D02*
X124436000Y-96496000D01*
X124433000Y-104839680D02*
X124433000Y-100192320D01*
X149052000Y-112376000D02*
X147320000Y-110644000D01*
X147320000Y-110644000D02*
X147320000Y-108085000D01*
D35*
%TO.N,Net-(Q10-C)*%
X179183000Y-66883000D02*
X177832000Y-65532000D01*
X195003446Y-66045000D02*
X193047446Y-68001000D01*
X193047446Y-68001000D02*
X189061000Y-68001000D01*
X189061000Y-68001000D02*
X185420000Y-64360000D01*
X197491000Y-66045000D02*
X195003446Y-66045000D01*
X185420000Y-64360000D02*
X182897000Y-66883000D01*
X182897000Y-66883000D02*
X179183000Y-66883000D01*
D34*
%TO.N,Net-(C15-Pad2)*%
X157480000Y-54015000D02*
X158155000Y-53340000D01*
X157480000Y-60325000D02*
X157480000Y-54015000D01*
X158155000Y-53340000D02*
X159806000Y-53340000D01*
D32*
%TO.N,Net-(D1-K)*%
X146304000Y-97282000D02*
X148336000Y-95250000D01*
X129032000Y-103632000D02*
X129532000Y-103132000D01*
X143510000Y-82296000D02*
X148336000Y-82296000D01*
X129532000Y-103132000D02*
X129532000Y-97282000D01*
X129532000Y-97282000D02*
X146304000Y-97282000D01*
X148336000Y-95250000D02*
X148336000Y-82296000D01*
X129103712Y-108712000D02*
X129103712Y-104211712D01*
X129032000Y-104140000D02*
X129032000Y-103632000D01*
%TO.N,Net-(D4-A)*%
X173736000Y-20574000D02*
X173736000Y-26035000D01*
%TO.N,Net-(D4-K)*%
X173736000Y-16002000D02*
X178435000Y-20701000D01*
X178435000Y-25146000D02*
X178435000Y-24130000D01*
X167005000Y-39116000D02*
X169394000Y-36727000D01*
X169394000Y-33552000D02*
X177800000Y-25146000D01*
X184150000Y-29845000D02*
X178435000Y-24130000D01*
X178435000Y-20701000D02*
X178435000Y-25146000D01*
X184150000Y-46990000D02*
X184150000Y-29845000D01*
X173736000Y-10414000D02*
X173736000Y-16002000D01*
X169394000Y-36727000D02*
X169394000Y-33552000D01*
X177800000Y-25146000D02*
X178435000Y-25146000D01*
%TO.N,Net-(D6-A)*%
X175999000Y-110386000D02*
X176005999Y-110386000D01*
X177061000Y-109330999D02*
X177061000Y-109324000D01*
X184150000Y-92075000D02*
X184150000Y-74295000D01*
X173159000Y-117914000D02*
X173159000Y-113226000D01*
X173159000Y-113226000D02*
X175999000Y-110386000D01*
X173159000Y-128074000D02*
X173159000Y-117914000D01*
X177061000Y-109324000D02*
X184150000Y-102235000D01*
X184150000Y-102235000D02*
X184150000Y-92075000D01*
X176005999Y-110386000D02*
X177061000Y-109330999D01*
X170815000Y-115570000D02*
X173159000Y-117914000D01*
X175260000Y-130175000D02*
X173159000Y-128074000D01*
%TO.N,Net-(J1-Pin_2)*%
X109749500Y-120374500D02*
X113792000Y-116332000D01*
X109749500Y-122964000D02*
X109749500Y-120374500D01*
%TO.N,Net-(Q1-B)*%
X123190000Y-59244000D02*
X125730000Y-56704000D01*
X125730000Y-51316000D02*
X125730000Y-49030000D01*
X125730000Y-56704000D02*
X125730000Y-51316000D01*
X123190000Y-62746000D02*
X123190000Y-59244000D01*
X125730000Y-49030000D02*
X129794000Y-44966000D01*
%TO.N,Net-(Q4-C)*%
X129032000Y-84709000D02*
X129032000Y-78359000D01*
X129032000Y-78359000D02*
X129032000Y-63508000D01*
X129032000Y-63508000D02*
X128270000Y-62746000D01*
%TO.N,Net-(Q6-E)*%
X126238000Y-93988000D02*
X126238000Y-83185000D01*
X126992000Y-94742000D02*
X126238000Y-93988000D01*
X126238000Y-83185000D02*
X121412000Y-78359000D01*
%TO.N,Net-(Q12-B)*%
X144780000Y-110625000D02*
X144780000Y-104140000D01*
X144780000Y-104140000D02*
X145415000Y-103505000D01*
%TO.N,Net-(Q10-B)*%
X152139110Y-28956000D02*
X143756000Y-28956000D01*
X122428000Y-18542000D02*
X122428000Y-26284000D01*
X122428000Y-26284000D02*
X125081000Y-28937000D01*
X152520110Y-28575000D02*
X152139110Y-28956000D01*
X141986000Y-27186000D02*
X143756000Y-28956000D01*
X152520110Y-26675000D02*
X152520110Y-28575000D01*
X125081000Y-28937000D02*
X143737000Y-28937000D01*
X143737000Y-28937000D02*
X143756000Y-28956000D01*
%TO.N,Net-(Q10-E)*%
X147960110Y-26675000D02*
X147960110Y-19944110D01*
X139446000Y-24646000D02*
X145931110Y-24646000D01*
X145931110Y-24646000D02*
X147960110Y-26675000D01*
X147960110Y-19944110D02*
X146558000Y-18542000D01*
D33*
%TO.N,Net-(Q15-S)*%
X197104000Y-40502000D02*
X190638000Y-40502000D01*
X190638000Y-40502000D02*
X190500000Y-40640000D01*
D32*
%TO.N,Net-(Q16-G)*%
X191770000Y-92075000D02*
X196955000Y-92075000D01*
D33*
%TO.N,Net-(Q16-S)*%
X196850000Y-102870000D02*
X197104000Y-103124000D01*
X190500000Y-102870000D02*
X196850000Y-102870000D01*
D32*
%TO.N,Net-(Q17-G)*%
X191770000Y-74295000D02*
X196977000Y-74295000D01*
D33*
%TO.N,Net-(Q17-S)*%
X197082000Y-85090000D02*
X197104000Y-85068000D01*
X190500000Y-85090000D02*
X197082000Y-85090000D01*
D32*
%TO.N,Net-(Q18-G)*%
X191770000Y-46990000D02*
X196966000Y-46990000D01*
D33*
%TO.N,Net-(Q18-S)*%
X190500000Y-57785000D02*
X196861000Y-57785000D01*
X196861000Y-57785000D02*
X197104000Y-58028000D01*
D32*
%TO.N,Net-(D6-K)*%
X175260000Y-120015000D02*
X175260000Y-116205000D01*
%TO.N,/LP+*%
X145066000Y-13240000D02*
X147260211Y-15434211D01*
X125000000Y-25918156D02*
X126336844Y-27255000D01*
X139799422Y-22895000D02*
X147260211Y-15434211D01*
X131496000Y-40470000D02*
X127000000Y-44966000D01*
X147260211Y-15434211D02*
X150756422Y-11938000D01*
X126336844Y-27255000D02*
X136837000Y-27255000D01*
X136906000Y-24709712D02*
X138720712Y-22895000D01*
X122174000Y-52840000D02*
X123190000Y-53856000D01*
X150756422Y-11938000D02*
X154178000Y-11938000D01*
X135636000Y-38870000D02*
X135636000Y-40470000D01*
X125000000Y-25654000D02*
X125000000Y-25918156D01*
X138720712Y-22895000D02*
X139799422Y-22895000D01*
X145066000Y-11938000D02*
X145066000Y-13240000D01*
X122174000Y-44966000D02*
X127000000Y-44966000D01*
X122174000Y-44966000D02*
X122174000Y-52840000D01*
X154178000Y-11938000D02*
X157734000Y-11938000D01*
X135636000Y-40470000D02*
X131496000Y-40470000D01*
X154178000Y-18542000D02*
X154178000Y-11938000D01*
X136906000Y-27186000D02*
X136906000Y-24709712D01*
%TO.N,/LP-*%
X130881712Y-125222000D02*
X131135712Y-125222000D01*
X152654000Y-125484000D02*
X154932000Y-125484000D01*
X152654000Y-125484000D02*
X150622000Y-123452000D01*
X159385000Y-114935000D02*
X153035000Y-108585000D01*
X152654000Y-129794000D02*
X148093401Y-129794000D01*
X150622000Y-123452000D02*
X148590000Y-123452000D01*
X148093401Y-129794000D02*
X147585401Y-129286000D01*
X147585401Y-129286000D02*
X147585401Y-126249401D01*
X152654000Y-125484000D02*
X152654000Y-129794000D01*
X146558000Y-125222000D02*
X130881712Y-125222000D01*
X159385000Y-121031000D02*
X159385000Y-114935000D01*
X154932000Y-125484000D02*
X159385000Y-121031000D01*
X128849712Y-123190000D02*
X130881712Y-125222000D01*
X128849712Y-127508000D02*
X131135712Y-125222000D01*
X153035000Y-103505000D02*
X153035000Y-108585000D01*
X147585401Y-126249401D02*
X146558000Y-125222000D01*
%TO.N,Net-(C26-Pad2)*%
X141184000Y-99568000D02*
X140676000Y-100076000D01*
X151892000Y-90424000D02*
X151892000Y-95250000D01*
X140676000Y-100116000D02*
X135676000Y-105116000D01*
X147574000Y-99568000D02*
X141184000Y-99568000D01*
X151892000Y-95250000D02*
X147574000Y-99568000D01*
%TO.N,Net-(Q15-G)*%
X191770000Y-29845000D02*
X196861000Y-29845000D01*
%TD*%
M02*
